<?xml version="1.0" encoding="UTF-8"?>
<svg id="Layer_2" xmlns="http://www.w3.org/2000/svg" version="1.1" viewBox="0 0 542 179">
  <!-- Generator: Adobe Illustrator 29.7.1, SVG Export Plug-In . SVG Version: 2.1.1 Build 8)  -->
  <defs>
    <style>
      .st0 {
        display: none;
      }

      .st0, .st1 {
        fill: #09518b;
      }

      .st2 {
        fill: #fff;
      }
    </style>
  </defs>
  <rect class="st0" width="542.8" height="179.34"/>
  <path class="st2" d="M5.26,108.98c41.08-19.64,72.8-35.76,93.02-46.21,11.83-5.54,25.07-11.67,39.55-18.28,24.12-11,44.84-20.19,63.75-23.91,14.51-2.85,26.84-2.25,28.81-2.15,4.08.22,7.33.62,8.61.8,30.61,4.51,51.06,28.5,69.47,50.68,13.85,16.69,8.95,14.78,28.02,39.06,17.56,22.35,29.86,37.64,51.28,46.81,12.26,5.25,22.9,6.29,27.07,6.61,26.12,2,45.76-8.73,81.15-28.68,9.83-5.54,23.53-13.72,39.35-24.75H5.26Z"/>
  <g>
    <path class="st1" d="M190.89,100.59v-24.15h6.43c1.21,0,2.22.27,3.03.82.81.55,1.41,1.29,1.81,2.23.4.94.6,2.01.6,3.21,0,.98-.13,1.82-.39,2.52-.26.7-.61,1.26-1.06,1.69-.44.43-.94.74-1.48.93v.24c.6.05,1.17.31,1.72.78.55.48,1,1.15,1.35,2.01.35.86.52,1.91.52,3.14s-.21,2.37-.63,3.37c-.42,1-1.05,1.78-1.9,2.35-.85.57-1.91.86-3.2.86h-6.79ZM193.93,86.71h3.01c.52,0,1-.14,1.42-.42.42-.28.75-.68,1-1.19.24-.51.36-1.13.36-1.83,0-.94-.23-1.71-.68-2.31-.46-.6-1.13-.91-2.03-.91h-3.07v6.66ZM193.93,96.94h3.27c1.1,0,1.9-.3,2.39-.91.49-.61.73-1.39.73-2.35,0-.72-.12-1.36-.37-1.94-.25-.58-.6-1.03-1.05-1.37-.45-.33-.99-.5-1.62-.5h-3.35v7.08Z"/>
    <path class="st1" d="M213.22,100.59h-3.25l5.91-24.15h3.75l5.92,24.15h-3.25l-4.48-19.2h-.13l-4.48,19.2ZM213.33,91.12h8.85v3.51h-8.85v-3.51Z"/>
    <path class="st1" d="M232.78,100.59v-24.15h3.04v11.1h.2l6.55-11.1h3.71l-6.49,10.84,6.55,13.31h-3.66l-5.01-10.35-1.86,3.16v7.19h-3.04Z"/>
    <path class="st1" d="M253.41,100.59v-24.15h10.92v3.67h-7.88v6.56h7.31v3.67h-7.31v6.59h7.94v3.67h-10.98Z"/>
    <path class="st1" d="M272.44,100.59v-24.15h6.29c1.29,0,2.37.32,3.25.97s1.54,1.55,1.99,2.71c.45,1.16.68,2.51.68,4.05s-.23,2.89-.69,4.03c-.46,1.14-1.13,2.01-2.01,2.63-.88.62-1.97.93-3.26.93h-4.48v-3.63h4.07c.75,0,1.37-.15,1.85-.45.48-.3.84-.75,1.07-1.33.23-.59.35-1.31.35-2.16s-.12-1.59-.35-2.2c-.23-.61-.59-1.07-1.07-1.39-.48-.32-1.1-.48-1.86-.48h-2.79v20.5h-3.04ZM281.11,89.65l4.15,10.94h-3.39l-4.08-10.94h3.32Z"/>
  </g>
  <g>
    <path class="st2" d="M355.31,100.96v-24.15h3.04v10.22h7.78v-10.22h3.05v24.15h-3.05v-10.26h-7.78v10.26h-3.04Z"/>
    <path class="st2" d="M392.48,88.88c0,2.6-.34,4.83-1.01,6.68-.67,1.85-1.59,3.27-2.75,4.25-1.16.98-2.48,1.47-3.95,1.47s-2.79-.49-3.95-1.48c-1.16-.99-2.08-2.41-2.75-4.26s-1.01-4.07-1.01-6.67.34-4.83,1.01-6.68c.67-1.85,1.59-3.27,2.75-4.25,1.16-.98,2.48-1.47,3.95-1.47s2.79.49,3.95,1.47c1.16.98,2.08,2.4,2.75,4.25.67,1.85,1.01,4.08,1.01,6.68ZM389.43,88.88c0-1.83-.2-3.38-.59-4.64-.4-1.26-.94-2.22-1.64-2.87-.7-.65-1.51-.97-2.42-.97s-1.72.32-2.42.97-1.25,1.6-1.64,2.87c-.4,1.26-.59,2.81-.59,4.64s.2,3.38.59,4.64c.4,1.26.94,2.22,1.64,2.87s1.5.97,2.42.97,1.72-.32,2.42-.97c.7-.65,1.25-1.6,1.64-2.87.4-1.26.59-2.81.59-4.64Z"/>
    <path class="st2" d="M410.96,76.8h3.04v15.78c0,1.73-.28,3.25-.85,4.56-.57,1.31-1.36,2.34-2.38,3.07-1.02.74-2.22,1.1-3.58,1.1s-2.57-.37-3.59-1.1c-1.02-.73-1.81-1.76-2.38-3.07-.56-1.31-.84-2.83-.84-4.56v-15.78h3.04v15.41c0,1.01.15,1.9.46,2.69s.75,1.4,1.31,1.85,1.23.67,2,.67,1.44-.22,2-.67,1-1.06,1.31-1.85.46-1.68.46-2.69v-15.41Z"/>
    <path class="st2" d="M431.44,83.44c-.08-1.03-.4-1.83-.96-2.41s-1.3-.86-2.2-.86c-.63,0-1.18.14-1.63.41-.45.28-.8.65-1.04,1.12s-.36,1.01-.37,1.62c0,.5.08.94.24,1.31s.38.68.66.94c.28.26.59.47.93.64s.68.32,1.02.44l1.57.57c.63.21,1.24.5,1.83.86.59.36,1.11.82,1.58,1.37.47.55.84,1.22,1.11,1.99s.41,1.69.41,2.74c0,1.42-.25,2.66-.75,3.73-.5,1.07-1.23,1.91-2.18,2.51-.95.6-2.09.9-3.44.9s-2.44-.29-3.4-.87c-.96-.58-1.71-1.43-2.25-2.55-.54-1.12-.83-2.48-.87-4.08h2.99c.04.84.22,1.54.54,2.1.32.56.73.97,1.24,1.25s1.08.41,1.72.41,1.24-.14,1.74-.43.89-.69,1.18-1.2.43-1.12.43-1.81c0-.63-.13-1.15-.39-1.56-.25-.41-.6-.76-1.05-1.04-.45-.28-.98-.53-1.58-.75l-1.91-.71c-1.38-.51-2.47-1.29-3.27-2.33s-1.2-2.43-1.2-4.16c0-1.42.27-2.67.81-3.74.54-1.07,1.27-1.9,2.2-2.49.93-.59,1.98-.89,3.16-.89s2.24.3,3.13.89c.9.59,1.6,1.42,2.12,2.46.51,1.05.78,2.25.79,3.61h-2.93Z"/>
    <path class="st2" d="M442.31,100.96v-24.15h10.92v3.67h-7.88v6.56h7.31v3.67h-7.31v6.59h7.94v3.67h-10.98Z"/>
  </g>
</svg>